<svg width="18" height="19" viewBox="0 0 18 19" fill="none" xmlns="http://www.w3.org/2000/svg">
<path d="M14.75 3.75V15.75C14.75 16.8546 13.8546 17.75 12.75 17.75H4.75C3.64543 17.75 2.75 16.8546 2.75 15.75V3.75H5.75V2.75C5.75 1.64543 6.64543 0.75 7.75 0.75H9.75C10.8546 0.75 11.75 1.64543 11.75 2.75V3.75H14.75Z" fill="#FBFAFF"/>
<path d="M14.75 3.75V15.75C14.75 16.8546 13.8546 17.75 12.75 17.75H4.75C3.64543 17.75 2.75 16.8546 2.75 15.75V3.75M11.75 3.75V2.75C11.75 1.64543 10.8546 0.75 9.75 0.75H7.75C6.64543 0.75 5.75 1.64543 5.75 2.75V3.75M0.75 3.75H16.75M6.75 7.75V13.75M10.75 7.75V13.75" stroke="#94A3BD" stroke-width="1.5" stroke-linecap="round" stroke-linejoin="round"/>
</svg>
